<svg width="400" height="272" viewBox="0 0 400 272" fill="none" xmlns="http://www.w3.org/2000/svg">
<g clip-path="url(#clip0)">
<path fill-rule="evenodd" clip-rule="evenodd" d="M263.022 240.999C226.939 240.999 221.519 211.756 195.807 187.551C169.726 162.993 153.663 166.045 158.118 125.034C225.069 88.9419 283.333 43.8517 342.795 0C363.863 5.5093 366.924 29.6877 376.715 46.8876C366.159 48.9663 357.121 52.6236 346.564 54.7022C341.378 66.5296 348.362 68.6591 346.564 85.9607C337.613 92.3882 330.361 70.9371 316.413 70.3315C325.337 80.6155 337.605 87.4337 339.026 105.497C337.221 123.162 323.664 128.644 316.413 140.663C314.762 178.841 321.203 208.63 331.488 234.438C328.684 243.253 310.348 235.966 301.337 238.345C294.169 233.926 293.916 216.543 274.955 214.902C264.179 195.58 276.315 170.608 278.723 152.385C265.562 145.754 248.282 163.802 225.959 160.199C234.137 190.794 256.886 208.931 270.711 222.759C275.105 227.155 284.264 226.831 284.117 232.531C283.913 240.342 269.618 240.999 263.022 240.999Z" fill="#F17C10"/>
<path fill-rule="evenodd" clip-rule="evenodd" d="M350.334 58.6095C356.941 55.0382 369.141 57.2654 372.947 50.7949C375.303 68.2879 387.861 112.343 350.334 105.497C340.712 92.6734 354.732 78.2398 350.334 58.6095Z" fill="#F17C10"/>
<path fill-rule="evenodd" clip-rule="evenodd" d="M342.795 109.405C349.553 108.908 350.744 114.191 357.871 113.312C366.664 157.597 391.821 184.917 399.329 230.531C391.769 242.229 368.39 237.529 350.333 238.346C350.386 230.582 360.618 233.379 357.871 222.716C333.874 208.521 342.735 160.262 323.951 140.663C327.772 127.691 344.812 128.425 342.795 109.405Z" fill="#F17C10"/>
<path fill-rule="evenodd" clip-rule="evenodd" d="M175.079 131.543C204.326 132.481 186.439 216.801 199.577 234.438C189.906 241.659 156.758 239.904 146.812 234.438C148.602 210.248 169.757 152.076 175.079 131.543Z" fill="#F17C10"/>
</g>
<g clip-path="url(#clip1)">
<path fill-rule="evenodd" clip-rule="evenodd" d="M132.426 270.509C91.3077 270.509 85.1317 237.686 55.8325 210.516C26.1124 182.952 7.80791 186.377 12.8844 140.344C89.1775 99.8328 155.571 49.2213 223.33 0C247.338 6.18391 250.826 33.3229 261.984 52.629C249.954 54.9622 239.655 59.0673 227.625 61.4005C221.715 74.6762 229.674 77.0664 227.625 96.4865C217.425 103.701 209.162 79.6233 193.267 78.9435C203.437 90.4868 217.416 98.1399 219.035 118.415C216.978 138.243 201.53 144.396 193.267 157.887C191.385 200.74 198.725 234.177 210.446 263.145C207.25 273.039 186.356 264.86 176.087 267.531C167.919 262.57 167.631 243.058 146.024 241.216C133.745 219.529 147.574 191.499 150.318 171.044C135.321 163.602 115.629 183.859 90.191 179.816C99.5108 214.156 125.434 234.515 141.188 250.036C146.195 254.97 156.632 254.606 156.464 261.005C156.232 269.772 139.942 270.509 132.426 270.509Z" fill="#F6D62B"/>
<path fill-rule="evenodd" clip-rule="evenodd" d="M231.92 65.7861C239.449 61.7775 253.351 64.2774 257.689 57.0146C260.373 76.6496 274.684 126.099 231.92 118.415C220.955 104.021 236.932 87.8201 231.92 65.7861Z" fill="#F6D62B"/>
<path fill-rule="evenodd" clip-rule="evenodd" d="M223.33 122.801C231.031 122.244 232.388 128.174 240.509 127.187C250.529 176.895 279.197 207.56 287.752 258.759C279.137 271.89 252.496 266.614 231.92 267.531C231.98 258.816 243.64 261.956 240.509 249.988C213.164 234.054 223.261 179.886 201.856 157.887C206.211 143.326 225.628 144.151 223.33 122.801Z" fill="#F6D62B"/>
<path fill-rule="evenodd" clip-rule="evenodd" d="M32.2111 147.651C65.5388 148.703 45.1557 243.348 60.1274 263.145C49.1069 271.25 11.334 269.281 0 263.145C2.04004 235.993 26.1468 170.698 32.2111 147.651Z" fill="#F6D62B"/>
</g>
<defs>
<clipPath id="clip0">
<rect width="252.941" height="242.327" fill="white" transform="translate(147.058)"/>
</clipPath>
<clipPath id="clip1">
<rect width="288.235" height="272" fill="white"/>
</clipPath>
</defs>
</svg>
